<svg width="520" height="360" viewBox="0 0 520 360" fill="none" xmlns="http://www.w3.org/2000/svg">
<path d="M439.387 86H406V138.683H439.387V86Z" fill="#EDE9E8"/>
<path d="M439.387 138.683H440.839V85.9999H439.387V138.683Z" fill="#DAD2D0"/>
<path d="M439.387 135.756V87.4634H407.452V135.756H439.387Z" fill="#FBFBF9"/>
<path d="M429.019 107.976C432.21 104.758 432.21 99.5424 429.019 96.3252C425.828 93.1081 420.654 93.1081 417.463 96.3252C414.272 99.5424 414.272 104.758 417.463 107.976C420.654 111.193 425.828 111.193 429.019 107.976Z" fill="#EDE9E8"/>
<path d="M432.129 115.268H413.258V116.732H432.129V115.268Z" fill="#EDE9E8"/>
<path d="M432.129 119.659H413.258V122.585H432.129V119.659Z" fill="#EDE9E8"/>
<path d="M432.129 126.976H413.258V128.439H432.129V126.976Z" fill="#EDE9E8"/>
<path d="M494.548 93.317H461.161V146H494.548V93.317Z" fill="#EDE9E8"/>
<path d="M494.548 146H496V93.3171H494.548V146Z" fill="#DAD2D0"/>
<path d="M493.097 143.073V94.7805H462.613V143.073H493.097Z" fill="#FBFBF9"/>
<path d="M486.116 111.494C487.153 107.066 484.433 102.629 480.04 101.584C475.648 100.539 471.247 103.281 470.21 107.709C469.173 112.137 471.894 116.574 476.286 117.619C480.678 118.664 485.08 115.922 486.116 111.494Z" fill="#EDE9E8"/>
<path d="M488.742 122.585H468.419V124.049H488.742V122.585Z" fill="#EDE9E8"/>
<path d="M488.742 128.439H468.419V131.366H488.742V128.439Z" fill="#EDE9E8"/>
<path d="M488.742 134.293H468.419V135.756H488.742V134.293Z" fill="#EDE9E8"/>
<ellipse cx="66" cy="326.5" rx="39" ry="2.5" fill="#DAD2D0"/>
<path fill-rule="evenodd" clip-rule="evenodd" d="M41.3745 240.064C42.4276 239.935 43.5516 239.98 44.531 240.398C46.6136 241.285 47.2056 243.755 47.177 245.763C47.1463 247.923 46.6892 250.284 48.3256 252.024C49.0778 252.825 50.0135 253.437 50.7522 254.253C51.5414 255.124 52.1607 256.12 52.6192 257.19C53.4612 259.156 53.8744 261.468 53.1045 263.53C52.4266 265.346 50.7212 266.985 51.0897 269.049C51.4741 271.203 53.637 272.849 54.9892 274.453C56.5197 276.269 57.9289 278.589 58.1605 280.969C58.3822 283.251 57.3929 285.559 55.8748 287.283C52.8413 290.73 48.2815 292.419 43.6839 292.409C41.7318 292.404 39.5217 292.316 37.8372 291.263C37.3165 290.937 37.0418 290.572 36.7323 290.064C36.4548 289.609 36.0883 289.313 35.664 288.991C34.7318 288.283 34.0585 287.33 33.6289 286.262C31.9605 282.117 33.294 276.988 35.6293 273.306C36.1827 272.434 36.6357 271.595 36.3669 270.555C36.0864 269.47 35.3969 268.491 34.7871 267.558C34.1844 266.636 33.4965 265.757 33.0255 264.76C32.5322 263.716 32.3933 262.622 32.4804 261.479C32.6442 259.332 33.5673 257.351 34.8743 255.625C36.1332 253.962 37.6112 252.371 37.6146 250.192C37.6182 247.882 36.0802 245.828 36.7354 243.48C37.0067 242.508 37.5517 241.51 38.4298 240.927C39.272 240.368 40.384 240.185 41.3745 240.064Z" fill="#3D76F5"/>
<path fill-rule="evenodd" clip-rule="evenodd" d="M40.6864 243.756C40.7061 243.446 41.0726 243.26 41.3611 243.341C41.7409 243.447 41.7336 243.803 41.7236 244.121C41.6928 245.096 41.8335 246.044 42.0671 246.991C42.5526 248.959 43.4498 250.772 44.1607 252.662C44.8709 254.551 45.2043 256.501 44.7876 258.5C44.3948 260.384 43.7778 262.219 43.3758 264.106C43.0215 265.769 42.6445 267.523 43.1841 269.182C43.7033 270.778 44.8511 272.079 45.6777 273.521C47.3887 276.508 48.1478 279.822 48.2493 283.232C48.2964 284.815 48.254 286.413 47.8881 287.966C47.6775 288.86 47.3945 290.069 46.6311 290.686C46.2791 290.971 45.6771 291.069 45.3809 290.648C45.1028 290.252 45.3468 289.64 45.435 289.219C45.8175 287.394 45.8944 285.529 45.8028 283.677C45.7142 281.883 45.503 280.091 44.9404 278.377C44.4183 276.787 43.625 275.358 42.6914 273.967C41.74 272.549 40.751 271.128 40.3579 269.448C39.9586 267.742 40.283 266.006 40.7169 264.332C41.1757 262.562 41.7767 260.842 42.398 259.12C43.0035 257.442 43.2181 255.854 42.8838 254.097C42.2235 250.627 40.4561 247.37 40.6864 243.756Z" fill="#245EDE"/>
<path fill-rule="evenodd" clip-rule="evenodd" d="M69.1809 244.275C70.4842 244.672 71.7787 245.313 72.7077 246.318C74.6831 248.455 74.0768 251.685 72.9864 254.044C71.8125 256.584 70.0338 259.136 71.0367 262.05C71.4974 263.389 72.2724 264.602 72.7095 265.952C73.1768 267.394 73.3783 268.896 73.3526 270.401C73.3051 273.166 72.5728 276.116 70.5838 278.152C68.8327 279.946 65.9698 280.993 65.315 283.627C64.6316 286.375 66.3018 289.451 67.0434 292.055C67.8823 295.001 68.3136 298.481 67.3316 301.417C66.3908 304.231 64.0154 306.444 61.3264 307.69C55.954 310.182 49.7164 309.798 44.3293 307.385C42.0421 306.36 39.4965 305.101 38.0751 302.976C37.6359 302.319 37.506 301.744 37.4102 300.982C37.3244 300.299 37.0504 299.757 36.7223 299.154C36.0014 297.831 35.7138 296.352 35.7719 294.865C35.9979 289.091 40.2623 283.722 44.9397 280.588C46.048 279.845 47.0213 279.089 47.2534 277.719C47.4958 276.289 47.2024 274.772 46.9783 273.35C46.7569 271.945 46.4131 270.546 46.3855 269.121C46.3567 267.628 46.7696 266.262 47.4736 264.956C48.796 262.503 50.9218 260.642 53.3638 259.283C55.7158 257.974 58.2875 256.864 59.4386 254.289C60.6588 251.559 59.9364 248.327 61.9411 245.892C62.7713 244.884 63.9356 243.989 65.2728 243.758C66.5548 243.537 67.9551 243.901 69.1809 244.275Z" fill="#6695FF"/>
<path fill-rule="evenodd" clip-rule="evenodd" d="M66.5187 248.788C66.7036 248.431 67.2293 248.403 67.5245 248.651C67.9128 248.977 67.7183 249.395 67.5411 249.766C66.9962 250.905 66.6661 252.101 66.4455 253.345C65.9867 255.931 66.09 258.55 65.9348 261.163C65.7801 263.773 65.1525 266.258 63.6227 268.406C62.1801 270.431 60.501 272.28 59.0466 274.303C57.765 276.085 56.4091 277.964 56.1749 280.212C55.9488 282.376 56.6128 284.52 56.8264 286.663C57.269 291.101 56.4278 295.424 54.7677 299.516C53.9966 301.416 53.1134 303.286 51.8753 304.932C51.1625 305.881 50.2011 307.163 48.9864 307.492C48.4263 307.644 47.671 307.444 47.5446 306.789C47.4257 306.174 48.0303 305.578 48.3535 305.125C49.7525 303.166 50.8152 300.998 51.6746 298.756C52.5072 296.584 53.1949 294.352 53.4311 292.026C53.6503 289.868 53.468 287.758 53.1021 285.62C52.7294 283.44 52.3142 281.237 52.731 279.041C53.1542 276.81 54.4394 274.925 55.8198 273.171C57.2797 271.316 58.8797 269.596 60.5047 267.883C62.0881 266.214 63.1676 264.447 63.6933 262.191C64.7315 257.734 64.3643 252.946 66.5187 248.788Z" fill="#3D76F5"/>
<path fill-rule="evenodd" clip-rule="evenodd" d="M28.8919 260.668C31.0589 260.668 32.9641 261.821 34.2769 263.458C35.8136 265.373 36.124 267.712 36.748 269.995C37.0585 271.131 37.5925 272.259 38.5285 273.031C39.3797 273.733 40.4603 273.874 41.4792 274.217C43.5155 274.902 45.1598 276.554 45.8092 278.568C46.6014 281.026 45.7623 283.504 45.9068 285.995C46.0394 288.282 48.2859 289.709 50.0933 290.805C51.8756 291.887 53.4811 292.899 54.0179 295.005C54.5871 297.239 54.7781 299.733 53.9897 301.939C52.677 305.614 48.8355 307.232 45.1236 307.482C41.7549 307.71 37.5191 307.353 34.9892 304.898C33.4754 303.429 32.9272 301.375 32.9952 299.331C33.0374 298.06 33.2882 296.8 33.6125 295.572C33.8423 294.702 34.1528 293.835 34.2413 292.935C34.4764 290.542 32.273 290.082 30.3974 289.425C28.0141 288.59 26.3455 287.013 25.1853 284.815C24.1048 282.769 23.6514 280.472 24.2991 278.219C24.63 277.069 25.23 276.025 26.0437 275.138C26.402 274.747 26.9068 274.421 27.2302 274.011C27.5319 273.627 27.4662 273.13 27.3622 272.682C26.8814 270.608 25.3831 268.89 24.8472 266.82C24.3635 264.951 24.6494 262.626 26.3512 261.42C27.0865 260.9 27.9932 260.674 28.8919 260.668Z" fill="#2E50D4"/>
<path fill-rule="evenodd" clip-rule="evenodd" d="M31.8443 266.072C34.1411 268.528 34.7654 271.86 34.9486 275.09C35.0512 276.901 34.9444 278.812 35.4745 280.568C35.928 282.072 36.9912 283.221 38.0872 284.308C40.2932 286.494 42.7535 288.717 43.3988 291.882C43.7774 293.739 43.5218 295.658 44.045 297.494C44.5207 299.164 45.3582 300.804 46.377 302.214C47.1972 303.35 48.2658 304.219 49.1624 305.277C49.436 305.6 49.8278 306.076 49.7149 306.532C49.5828 307.066 48.9051 307.235 48.4243 307.151C47.3032 306.956 46.3595 305.881 45.6265 305.1C44.5546 303.957 43.6438 302.729 42.9035 301.35C42.0816 299.82 41.4199 298.195 41.1371 296.478C40.8437 294.697 40.9897 292.84 40.3197 291.13C39.1923 288.253 36.4576 286.555 34.4805 284.313C32.0171 281.519 32.3845 278.041 32.6368 274.604C32.7754 272.715 32.9132 270.582 31.9624 268.858C31.5995 268.2 30.7904 267.586 30.6344 266.837C30.4914 266.152 31.2715 265.459 31.8443 266.072Z" fill="#2C65E6"/>
<path fill-rule="evenodd" clip-rule="evenodd" d="M34.2939 306.433C34.2939 320.48 36.5773 327.84 48.6321 327.84C60.6868 327.84 62.9703 320.48 62.9703 306.433H34.2939Z" fill="#FFA490"/>
<path d="M200.703 185.22C201.039 185.22 201.303 185.328 201.495 185.544C201.699 185.748 201.801 186.024 201.801 186.372V196.938C201.801 197.286 201.699 197.568 201.495 197.784C201.291 198 201.027 198.108 200.703 198.108C200.319 198.108 200.025 197.97 199.821 197.694L193.251 189.144V196.938C193.251 197.286 193.155 197.568 192.963 197.784C192.771 198 192.507 198.108 192.171 198.108C191.835 198.108 191.571 198 191.379 197.784C191.187 197.568 191.091 197.286 191.091 196.938V186.372C191.091 186.024 191.193 185.748 191.397 185.544C191.601 185.328 191.871 185.22 192.207 185.22C192.579 185.22 192.867 185.358 193.071 185.634L199.623 194.148V186.372C199.623 186.024 199.719 185.748 199.911 185.544C200.115 185.328 200.379 185.22 200.703 185.22ZM208.156 188.982C209.38 188.982 210.286 189.288 210.874 189.9C211.474 190.5 211.774 191.418 211.774 192.654V197.046C211.774 197.37 211.678 197.628 211.486 197.82C211.294 198 211.03 198.09 210.694 198.09C210.382 198.09 210.124 197.994 209.92 197.802C209.728 197.61 209.632 197.358 209.632 197.046V196.65C209.428 197.118 209.104 197.484 208.66 197.748C208.228 198.012 207.724 198.144 207.148 198.144C206.56 198.144 206.026 198.024 205.546 197.784C205.066 197.544 204.688 197.214 204.412 196.794C204.136 196.374 203.998 195.906 203.998 195.39C203.998 194.742 204.16 194.232 204.484 193.86C204.82 193.488 205.36 193.218 206.104 193.05C206.848 192.882 207.874 192.798 209.182 192.798H209.632V192.384C209.632 191.796 209.506 191.37 209.254 191.106C209.002 190.83 208.594 190.692 208.03 190.692C207.682 190.692 207.328 190.746 206.968 190.854C206.608 190.95 206.182 191.094 205.69 191.286C205.378 191.442 205.15 191.52 205.006 191.52C204.79 191.52 204.61 191.442 204.466 191.286C204.334 191.13 204.268 190.926 204.268 190.674C204.268 190.47 204.316 190.296 204.412 190.152C204.52 189.996 204.694 189.852 204.934 189.72C205.354 189.492 205.852 189.312 206.428 189.18C207.016 189.048 207.592 188.982 208.156 188.982ZM207.598 196.524C208.198 196.524 208.684 196.326 209.056 195.93C209.44 195.522 209.632 195 209.632 194.364V193.986H209.308C208.504 193.986 207.88 194.022 207.436 194.094C206.992 194.166 206.674 194.292 206.482 194.472C206.29 194.652 206.194 194.898 206.194 195.21C206.194 195.594 206.326 195.912 206.59 196.164C206.866 196.404 207.202 196.524 207.598 196.524ZM209.47 187.488C209.254 187.488 209.038 187.44 208.822 187.344C208.618 187.248 208.354 187.104 208.03 186.912C207.766 186.756 207.556 186.642 207.4 186.57C207.244 186.498 207.1 186.462 206.968 186.462C206.776 186.462 206.62 186.51 206.5 186.606C206.392 186.702 206.278 186.84 206.158 187.02C206.062 187.164 205.978 187.272 205.906 187.344C205.834 187.404 205.744 187.434 205.636 187.434C205.504 187.434 205.39 187.38 205.294 187.272C205.21 187.152 205.168 187.002 205.168 186.822C205.168 186.582 205.24 186.318 205.384 186.03C205.528 185.73 205.726 185.478 205.978 185.274C206.242 185.058 206.53 184.95 206.842 184.95C207.058 184.95 207.268 184.998 207.472 185.094C207.688 185.19 207.958 185.334 208.282 185.526C208.546 185.682 208.756 185.796 208.912 185.868C209.068 185.94 209.212 185.976 209.344 185.976C209.536 185.976 209.686 185.928 209.794 185.832C209.914 185.736 210.034 185.598 210.154 185.418C210.25 185.274 210.334 185.172 210.406 185.112C210.478 185.04 210.568 185.004 210.676 185.004C210.82 185.004 210.934 185.064 211.018 185.184C211.102 185.292 211.144 185.436 211.144 185.616C211.144 185.856 211.072 186.126 210.928 186.426C210.784 186.714 210.58 186.966 210.316 187.182C210.064 187.386 209.782 187.488 209.47 187.488ZM218.075 198.144C217.175 198.144 216.383 197.958 215.699 197.586C215.027 197.214 214.505 196.68 214.133 195.984C213.761 195.288 213.575 194.478 213.575 193.554C213.575 192.63 213.761 191.826 214.133 191.142C214.505 190.446 215.027 189.912 215.699 189.54C216.383 189.168 217.175 188.982 218.075 188.982C218.975 188.982 219.761 189.168 220.433 189.54C221.117 189.912 221.639 190.446 221.999 191.142C222.371 191.826 222.557 192.63 222.557 193.554C222.557 194.478 222.371 195.288 221.999 195.984C221.639 196.68 221.117 197.214 220.433 197.586C219.761 197.958 218.975 198.144 218.075 198.144ZM218.057 196.398C218.789 196.398 219.347 196.158 219.731 195.678C220.115 195.198 220.307 194.49 220.307 193.554C220.307 192.63 220.115 191.928 219.731 191.448C219.347 190.956 218.795 190.71 218.075 190.71C217.355 190.71 216.797 190.956 216.401 191.448C216.017 191.928 215.825 192.63 215.825 193.554C215.825 194.49 216.017 195.198 216.401 195.678C216.785 196.158 217.337 196.398 218.057 196.398ZM234.449 188.982C236.513 188.982 237.545 190.188 237.545 192.6V197.028C237.545 197.364 237.443 197.628 237.239 197.82C237.047 198.012 236.777 198.108 236.429 198.108C236.081 198.108 235.805 198.012 235.601 197.82C235.397 197.628 235.295 197.364 235.295 197.028V192.6C235.295 191.964 235.163 191.502 234.899 191.214C234.647 190.914 234.245 190.764 233.693 190.764C233.045 190.764 232.523 190.968 232.127 191.376C231.743 191.784 231.551 192.33 231.551 193.014V197.028C231.551 197.364 231.449 197.628 231.245 197.82C231.041 198.012 230.765 198.108 230.417 198.108C230.069 198.108 229.793 198.012 229.589 197.82C229.397 197.628 229.301 197.364 229.301 197.028V186.264C229.301 185.952 229.403 185.7 229.607 185.508C229.823 185.316 230.099 185.22 230.435 185.22C230.771 185.22 231.041 185.31 231.245 185.49C231.449 185.67 231.551 185.916 231.551 186.228V190.422C231.851 189.954 232.247 189.6 232.739 189.36C233.243 189.108 233.813 188.982 234.449 188.982ZM243.646 188.982C244.87 188.982 245.776 189.288 246.364 189.9C246.964 190.5 247.264 191.418 247.264 192.654V197.046C247.264 197.37 247.168 197.628 246.976 197.82C246.784 198 246.52 198.09 246.184 198.09C245.872 198.09 245.614 197.994 245.41 197.802C245.218 197.61 245.122 197.358 245.122 197.046V196.65C244.918 197.118 244.594 197.484 244.15 197.748C243.718 198.012 243.214 198.144 242.638 198.144C242.05 198.144 241.516 198.024 241.036 197.784C240.556 197.544 240.178 197.214 239.902 196.794C239.626 196.374 239.488 195.906 239.488 195.39C239.488 194.742 239.65 194.232 239.974 193.86C240.31 193.488 240.85 193.218 241.594 193.05C242.338 192.882 243.364 192.798 244.672 192.798H245.122V192.384C245.122 191.796 244.996 191.37 244.744 191.106C244.492 190.83 244.084 190.692 243.52 190.692C243.172 190.692 242.818 190.746 242.458 190.854C242.098 190.95 241.672 191.094 241.18 191.286C240.868 191.442 240.64 191.52 240.496 191.52C240.28 191.52 240.1 191.442 239.956 191.286C239.824 191.13 239.758 190.926 239.758 190.674C239.758 190.47 239.806 190.296 239.902 190.152C240.01 189.996 240.184 189.852 240.424 189.72C240.844 189.492 241.342 189.312 241.918 189.18C242.506 189.048 243.082 188.982 243.646 188.982ZM243.088 196.524C243.688 196.524 244.174 196.326 244.546 195.93C244.93 195.522 245.122 195 245.122 194.364V193.986H244.798C243.994 193.986 243.37 194.022 242.926 194.094C242.482 194.166 242.164 194.292 241.972 194.472C241.78 194.652 241.684 194.898 241.684 195.21C241.684 195.594 241.816 195.912 242.08 196.164C242.356 196.404 242.692 196.524 243.088 196.524ZM244.096 187.992C243.964 188.088 243.832 188.136 243.7 188.136C243.532 188.136 243.388 188.082 243.268 187.974C243.16 187.854 243.106 187.716 243.106 187.56C243.106 187.428 243.154 187.296 243.25 187.164L244.996 184.842C245.272 184.482 245.59 184.302 245.95 184.302C246.214 184.302 246.436 184.398 246.616 184.59C246.808 184.77 246.904 184.986 246.904 185.238C246.904 185.574 246.742 185.862 246.418 186.102L244.096 187.992ZM259.55 188.982C260.606 188.982 261.392 189.282 261.908 189.882C262.424 190.482 262.682 191.388 262.682 192.6V197.028C262.682 197.364 262.58 197.628 262.376 197.82C262.184 198.012 261.914 198.108 261.566 198.108C261.218 198.108 260.942 198.012 260.738 197.82C260.534 197.628 260.432 197.364 260.432 197.028V192.726C260.432 192.042 260.3 191.544 260.036 191.232C259.784 190.92 259.382 190.764 258.83 190.764C258.182 190.764 257.66 190.968 257.264 191.376C256.88 191.784 256.688 192.33 256.688 193.014V197.028C256.688 197.364 256.586 197.628 256.382 197.82C256.178 198.012 255.902 198.108 255.554 198.108C255.206 198.108 254.93 198.012 254.726 197.82C254.534 197.628 254.438 197.364 254.438 197.028V190.062C254.438 189.75 254.54 189.498 254.744 189.306C254.948 189.114 255.224 189.018 255.572 189.018C255.884 189.018 256.136 189.114 256.328 189.306C256.532 189.486 256.634 189.726 256.634 190.026V190.512C256.934 190.02 257.336 189.642 257.84 189.378C258.344 189.114 258.914 188.982 259.55 188.982ZM271.933 195.588C272.137 195.588 272.299 195.666 272.419 195.822C272.551 195.978 272.617 196.188 272.617 196.452C272.617 196.824 272.395 197.136 271.951 197.388C271.543 197.616 271.081 197.802 270.565 197.946C270.049 198.078 269.557 198.144 269.089 198.144C267.673 198.144 266.551 197.736 265.723 196.92C264.895 196.104 264.481 194.988 264.481 193.572C264.481 192.672 264.661 191.874 265.021 191.178C265.381 190.482 265.885 189.942 266.533 189.558C267.193 189.174 267.937 188.982 268.765 188.982C269.557 188.982 270.247 189.156 270.835 189.504C271.423 189.852 271.879 190.344 272.203 190.98C272.527 191.616 272.689 192.366 272.689 193.23C272.689 193.746 272.461 194.004 272.005 194.004H266.695C266.767 194.832 267.001 195.444 267.397 195.84C267.793 196.224 268.369 196.416 269.125 196.416C269.509 196.416 269.845 196.368 270.133 196.272C270.433 196.176 270.769 196.044 271.141 195.876C271.501 195.684 271.765 195.588 271.933 195.588ZM268.819 190.566C268.207 190.566 267.715 190.758 267.343 191.142C266.983 191.526 266.767 192.078 266.695 192.798H270.763C270.739 192.066 270.559 191.514 270.223 191.142C269.887 190.758 269.419 190.566 268.819 190.566ZM279.641 188.982C280.697 188.982 281.483 189.282 281.999 189.882C282.515 190.482 282.773 191.388 282.773 192.6V197.028C282.773 197.364 282.671 197.628 282.467 197.82C282.275 198.012 282.005 198.108 281.657 198.108C281.309 198.108 281.033 198.012 280.829 197.82C280.625 197.628 280.523 197.364 280.523 197.028V192.726C280.523 192.042 280.391 191.544 280.127 191.232C279.875 190.92 279.473 190.764 278.921 190.764C278.273 190.764 277.751 190.968 277.355 191.376C276.971 191.784 276.779 192.33 276.779 193.014V197.028C276.779 197.364 276.677 197.628 276.473 197.82C276.269 198.012 275.993 198.108 275.645 198.108C275.297 198.108 275.021 198.012 274.817 197.82C274.625 197.628 274.529 197.364 274.529 197.028V190.062C274.529 189.75 274.631 189.498 274.835 189.306C275.039 189.114 275.315 189.018 275.663 189.018C275.975 189.018 276.227 189.114 276.419 189.306C276.623 189.486 276.725 189.726 276.725 190.026V190.512C277.025 190.02 277.427 189.642 277.931 189.378C278.435 189.114 279.005 188.982 279.641 188.982ZM290.207 188.982C292.271 188.982 293.303 190.188 293.303 192.6V197.028C293.303 197.364 293.201 197.628 292.997 197.82C292.805 198.012 292.535 198.108 292.187 198.108C291.839 198.108 291.563 198.012 291.359 197.82C291.155 197.628 291.053 197.364 291.053 197.028V192.6C291.053 191.964 290.921 191.502 290.657 191.214C290.405 190.914 290.003 190.764 289.451 190.764C288.803 190.764 288.281 190.968 287.885 191.376C287.501 191.784 287.309 192.33 287.309 193.014V197.028C287.309 197.364 287.207 197.628 287.003 197.82C286.799 198.012 286.523 198.108 286.175 198.108C285.827 198.108 285.551 198.012 285.347 197.82C285.155 197.628 285.059 197.364 285.059 197.028V186.264C285.059 185.952 285.161 185.7 285.365 185.508C285.581 185.316 285.857 185.22 286.193 185.22C286.529 185.22 286.799 185.31 287.003 185.49C287.207 185.67 287.309 185.916 287.309 186.228V190.422C287.609 189.954 288.005 189.6 288.497 189.36C289.001 189.108 289.571 188.982 290.207 188.982ZM302.536 189.018C302.884 189.018 303.16 189.114 303.364 189.306C303.568 189.498 303.67 189.756 303.67 190.08V197.064C303.67 197.376 303.562 197.628 303.346 197.82C303.142 198.012 302.872 198.108 302.536 198.108C302.212 198.108 301.954 198.018 301.762 197.838C301.57 197.658 301.474 197.412 301.474 197.1V196.65C301.198 197.13 300.826 197.502 300.358 197.766C299.89 198.018 299.362 198.144 298.774 198.144C296.614 198.144 295.534 196.932 295.534 194.508V190.08C295.534 189.756 295.636 189.498 295.84 189.306C296.044 189.114 296.314 189.018 296.65 189.018C296.998 189.018 297.274 189.114 297.478 189.306C297.682 189.498 297.784 189.756 297.784 190.08V194.526C297.784 195.15 297.91 195.612 298.162 195.912C298.414 196.212 298.81 196.362 299.35 196.362C299.974 196.362 300.472 196.158 300.844 195.75C301.228 195.33 301.42 194.778 301.42 194.094V190.08C301.42 189.756 301.522 189.498 301.726 189.306C301.93 189.114 302.2 189.018 302.536 189.018ZM316.47 188.982C317.43 188.982 318.162 189.27 318.666 189.846C319.182 190.41 319.44 191.328 319.44 192.6V197.028C319.44 197.376 319.332 197.646 319.116 197.838C318.912 198.018 318.642 198.108 318.306 198.108C317.982 198.108 317.712 198.018 317.496 197.838C317.292 197.646 317.19 197.376 317.19 197.028V192.6C317.19 191.94 317.07 191.472 316.83 191.196C316.602 190.908 316.248 190.764 315.768 190.764C315.18 190.764 314.712 190.968 314.364 191.376C314.016 191.772 313.842 192.318 313.842 193.014V197.028C313.842 197.376 313.734 197.646 313.518 197.838C313.314 198.018 313.05 198.108 312.726 198.108C312.402 198.108 312.132 198.018 311.916 197.838C311.7 197.646 311.592 197.376 311.592 197.028V192.6C311.592 191.94 311.472 191.472 311.232 191.196C311.004 190.908 310.65 190.764 310.17 190.764C309.582 190.764 309.114 190.968 308.766 191.376C308.43 191.772 308.262 192.318 308.262 193.014V197.028C308.262 197.376 308.154 197.646 307.938 197.838C307.722 198.018 307.452 198.108 307.128 198.108C306.804 198.108 306.534 198.018 306.318 197.838C306.114 197.646 306.012 197.376 306.012 197.028V190.062C306.012 189.726 306.12 189.468 306.336 189.288C306.552 189.108 306.822 189.018 307.146 189.018C307.458 189.018 307.71 189.108 307.902 189.288C308.106 189.456 308.208 189.702 308.208 190.026V190.458C308.484 189.978 308.85 189.612 309.306 189.36C309.774 189.108 310.308 188.982 310.908 188.982C312.228 188.982 313.11 189.534 313.554 190.638C313.818 190.134 314.208 189.732 314.724 189.432C315.24 189.132 315.822 188.982 316.47 188.982ZM325.543 188.982C326.767 188.982 327.673 189.288 328.261 189.9C328.861 190.5 329.161 191.418 329.161 192.654V197.046C329.161 197.37 329.065 197.628 328.873 197.82C328.681 198 328.417 198.09 328.081 198.09C327.769 198.09 327.511 197.994 327.307 197.802C327.115 197.61 327.019 197.358 327.019 197.046V196.65C326.815 197.118 326.491 197.484 326.047 197.748C325.615 198.012 325.111 198.144 324.535 198.144C323.947 198.144 323.413 198.024 322.933 197.784C322.453 197.544 322.075 197.214 321.799 196.794C321.523 196.374 321.385 195.906 321.385 195.39C321.385 194.742 321.547 194.232 321.871 193.86C322.207 193.488 322.747 193.218 323.491 193.05C324.235 192.882 325.261 192.798 326.569 192.798H327.019V192.384C327.019 191.796 326.893 191.37 326.641 191.106C326.389 190.83 325.981 190.692 325.417 190.692C325.069 190.692 324.715 190.746 324.355 190.854C323.995 190.95 323.569 191.094 323.077 191.286C322.765 191.442 322.537 191.52 322.393 191.52C322.177 191.52 321.997 191.442 321.853 191.286C321.721 191.13 321.655 190.926 321.655 190.674C321.655 190.47 321.703 190.296 321.799 190.152C321.907 189.996 322.081 189.852 322.321 189.72C322.741 189.492 323.239 189.312 323.815 189.18C324.403 189.048 324.979 188.982 325.543 188.982ZM324.985 196.524C325.585 196.524 326.071 196.326 326.443 195.93C326.827 195.522 327.019 195 327.019 194.364V193.986H326.695C325.891 193.986 325.267 194.022 324.823 194.094C324.379 194.166 324.061 194.292 323.869 194.472C323.677 194.652 323.581 194.898 323.581 195.21C323.581 195.594 323.713 195.912 323.977 196.164C324.253 196.404 324.589 196.524 324.985 196.524ZM186.669 222.144C185.793 222.144 185.019 221.958 184.347 221.586C183.687 221.214 183.177 220.686 182.817 220.002C182.457 219.318 182.277 218.52 182.277 217.608C182.277 216.696 182.463 215.892 182.835 215.196C183.219 214.488 183.753 213.942 184.437 213.558C185.121 213.174 185.907 212.982 186.795 212.982C187.263 212.982 187.731 213.048 188.199 213.18C188.679 213.312 189.099 213.492 189.459 213.72C189.843 213.972 190.035 214.29 190.035 214.674C190.035 214.938 189.969 215.154 189.837 215.322C189.717 215.478 189.555 215.556 189.351 215.556C189.219 215.556 189.081 215.526 188.937 215.466C188.793 215.406 188.649 215.334 188.505 215.25C188.241 215.094 187.989 214.974 187.749 214.89C187.509 214.794 187.233 214.746 186.921 214.746C186.177 214.746 185.601 214.992 185.193 215.484C184.797 215.964 184.599 216.66 184.599 217.572C184.599 218.472 184.797 219.168 185.193 219.66C185.601 220.14 186.177 220.38 186.921 220.38C187.221 220.38 187.485 220.338 187.713 220.254C187.953 220.158 188.217 220.032 188.505 219.876C188.685 219.768 188.841 219.69 188.973 219.642C189.105 219.582 189.237 219.552 189.369 219.552C189.561 219.552 189.723 219.636 189.855 219.804C189.987 219.972 190.053 220.182 190.053 220.434C190.053 220.638 190.005 220.818 189.909 220.974C189.825 221.118 189.681 221.25 189.477 221.37C189.105 221.61 188.673 221.802 188.181 221.946C187.689 222.078 187.185 222.144 186.669 222.144ZM195.566 222.144C194.666 222.144 193.874 221.958 193.19 221.586C192.518 221.214 191.996 220.68 191.624 219.984C191.252 219.288 191.066 218.478 191.066 217.554C191.066 216.63 191.252 215.826 191.624 215.142C191.996 214.446 192.518 213.912 193.19 213.54C193.874 213.168 194.666 212.982 195.566 212.982C196.466 212.982 197.252 213.168 197.924 213.54C198.608 213.912 199.13 214.446 199.49 215.142C199.862 215.826 200.048 216.63 200.048 217.554C200.048 218.478 199.862 219.288 199.49 219.984C199.13 220.68 198.608 221.214 197.924 221.586C197.252 221.958 196.466 222.144 195.566 222.144ZM195.548 220.398C196.28 220.398 196.838 220.158 197.222 219.678C197.606 219.198 197.798 218.49 197.798 217.554C197.798 216.63 197.606 215.928 197.222 215.448C196.838 214.956 196.286 214.71 195.566 214.71C194.846 214.71 194.288 214.956 193.892 215.448C193.508 215.928 193.316 216.63 193.316 217.554C193.316 218.49 193.508 219.198 193.892 219.678C194.276 220.158 194.828 220.398 195.548 220.398ZM207.017 212.982C208.073 212.982 208.859 213.282 209.375 213.882C209.891 214.482 210.149 215.388 210.149 216.6V221.028C210.149 221.364 210.047 221.628 209.843 221.82C209.651 222.012 209.381 222.108 209.033 222.108C208.685 222.108 208.409 222.012 208.205 221.82C208.001 221.628 207.899 221.364 207.899 221.028V216.726C207.899 216.042 207.767 215.544 207.503 215.232C207.251 214.92 206.849 214.764 206.297 214.764C205.649 214.764 205.127 214.968 204.731 215.376C204.347 215.784 204.155 216.33 204.155 217.014V221.028C204.155 221.364 204.053 221.628 203.849 221.82C203.645 222.012 203.369 222.108 203.021 222.108C202.673 222.108 202.397 222.012 202.193 221.82C202.001 221.628 201.905 221.364 201.905 221.028V214.062C201.905 213.75 202.007 213.498 202.211 213.306C202.415 213.114 202.691 213.018 203.039 213.018C203.351 213.018 203.603 213.114 203.795 213.306C203.999 213.486 204.101 213.726 204.101 214.026V214.512C204.401 214.02 204.803 213.642 205.307 213.378C205.811 213.114 206.381 212.982 207.017 212.982ZM215.621 222.144C214.313 222.144 213.257 221.886 212.453 221.37C212.069 221.142 211.877 220.818 211.877 220.398C211.877 220.158 211.943 219.966 212.075 219.822C212.207 219.666 212.369 219.588 212.561 219.588C212.765 219.588 213.047 219.684 213.407 219.876C213.791 220.056 214.139 220.194 214.451 220.29C214.775 220.386 215.183 220.434 215.675 220.434C216.179 220.434 216.569 220.35 216.845 220.182C217.133 220.014 217.277 219.78 217.277 219.48C217.277 219.276 217.217 219.114 217.097 218.994C216.989 218.874 216.785 218.766 216.485 218.67C216.197 218.562 215.753 218.442 215.153 218.31C214.085 218.094 213.317 217.788 212.849 217.392C212.393 216.996 212.165 216.45 212.165 215.754C212.165 215.226 212.321 214.752 212.633 214.332C212.945 213.9 213.371 213.57 213.911 213.342C214.463 213.102 215.087 212.982 215.783 212.982C216.287 212.982 216.773 213.048 217.241 213.18C217.709 213.3 218.129 213.48 218.501 213.72C218.885 213.96 219.077 214.278 219.077 214.674C219.077 214.914 219.011 215.118 218.879 215.286C218.747 215.442 218.585 215.52 218.393 215.52C218.261 215.52 218.129 215.496 217.997 215.448C217.877 215.388 217.721 215.304 217.529 215.196C217.181 215.016 216.881 214.884 216.629 214.8C216.377 214.704 216.065 214.656 215.693 214.656C215.249 214.656 214.895 214.746 214.631 214.926C214.379 215.106 214.253 215.352 214.253 215.664C214.253 215.964 214.385 216.192 214.649 216.348C214.913 216.504 215.423 216.66 216.179 216.816C216.983 216.984 217.613 217.176 218.069 217.392C218.525 217.608 218.849 217.878 219.041 218.202C219.245 218.526 219.347 218.94 219.347 219.444C219.347 220.26 219.005 220.914 218.321 221.406C217.649 221.898 216.749 222.144 215.621 222.144ZM228.119 213.018C228.467 213.018 228.743 213.114 228.947 213.306C229.151 213.498 229.253 213.756 229.253 214.08V221.064C229.253 221.376 229.145 221.628 228.929 221.82C228.725 222.012 228.455 222.108 228.119 222.108C227.795 222.108 227.537 222.018 227.345 221.838C227.153 221.658 227.057 221.412 227.057 221.1V220.65C226.781 221.13 226.409 221.502 225.941 221.766C225.473 222.018 224.945 222.144 224.357 222.144C222.197 222.144 221.117 220.932 221.117 218.508V214.08C221.117 213.756 221.219 213.498 221.423 213.306C221.627 213.114 221.897 213.018 222.233 213.018C222.581 213.018 222.857 213.114 223.061 213.306C223.265 213.498 223.367 213.756 223.367 214.08V218.526C223.367 219.15 223.493 219.612 223.745 219.912C223.997 220.212 224.393 220.362 224.933 220.362C225.557 220.362 226.055 220.158 226.427 219.75C226.811 219.33 227.003 218.778 227.003 218.094V214.08C227.003 213.756 227.105 213.498 227.309 213.306C227.513 213.114 227.783 213.018 228.119 213.018ZM232.711 222.108C232.387 222.108 232.117 222.018 231.901 221.838C231.697 221.646 231.595 221.376 231.595 221.028V210.282C231.595 209.934 231.697 209.67 231.901 209.49C232.117 209.31 232.387 209.22 232.711 209.22C233.035 209.22 233.305 209.31 233.521 209.49C233.737 209.67 233.845 209.934 233.845 210.282V221.028C233.845 221.376 233.737 221.646 233.521 221.838C233.305 222.018 233.035 222.108 232.711 222.108ZM241.124 220.434C241.724 220.47 242.024 220.74 242.024 221.244C242.024 221.532 241.904 221.754 241.664 221.91C241.436 222.054 241.106 222.114 240.674 222.09L240.188 222.054C238.172 221.91 237.164 220.83 237.164 218.814V214.89H236.264C235.94 214.89 235.688 214.818 235.508 214.674C235.34 214.53 235.256 214.32 235.256 214.044C235.256 213.768 235.34 213.558 235.508 213.414C235.688 213.27 235.94 213.198 236.264 213.198H237.164V211.542C237.164 211.218 237.266 210.96 237.47 210.768C237.674 210.576 237.95 210.48 238.298 210.48C238.634 210.48 238.904 210.576 239.108 210.768C239.312 210.96 239.414 211.218 239.414 211.542V213.198H240.944C241.268 213.198 241.514 213.27 241.682 213.414C241.862 213.558 241.952 213.768 241.952 214.044C241.952 214.32 241.862 214.53 241.682 214.674C241.514 214.818 241.268 214.89 240.944 214.89H239.414V218.976C239.414 219.864 239.822 220.338 240.638 220.398L241.124 220.434ZM247.012 212.982C248.236 212.982 249.142 213.288 249.73 213.9C250.33 214.5 250.63 215.418 250.63 216.654V221.046C250.63 221.37 250.534 221.628 250.342 221.82C250.15 222 249.886 222.09 249.55 222.09C249.238 222.09 248.98 221.994 248.776 221.802C248.584 221.61 248.488 221.358 248.488 221.046V220.65C248.284 221.118 247.96 221.484 247.516 221.748C247.084 222.012 246.58 222.144 246.004 222.144C245.416 222.144 244.882 222.024 244.402 221.784C243.922 221.544 243.544 221.214 243.268 220.794C242.992 220.374 242.854 219.906 242.854 219.39C242.854 218.742 243.016 218.232 243.34 217.86C243.676 217.488 244.216 217.218 244.96 217.05C245.704 216.882 246.73 216.798 248.038 216.798H248.488V216.384C248.488 215.796 248.362 215.37 248.11 215.106C247.858 214.83 247.45 214.692 246.886 214.692C246.538 214.692 246.184 214.746 245.824 214.854C245.464 214.95 245.038 215.094 244.546 215.286C244.234 215.442 244.006 215.52 243.862 215.52C243.646 215.52 243.466 215.442 243.322 215.286C243.19 215.13 243.124 214.926 243.124 214.674C243.124 214.47 243.172 214.296 243.268 214.152C243.376 213.996 243.55 213.852 243.79 213.72C244.21 213.492 244.708 213.312 245.284 213.18C245.872 213.048 246.448 212.982 247.012 212.982ZM246.454 220.524C247.054 220.524 247.54 220.326 247.912 219.93C248.296 219.522 248.488 219 248.488 218.364V217.986H248.164C247.36 217.986 246.736 218.022 246.292 218.094C245.848 218.166 245.53 218.292 245.338 218.472C245.146 218.652 245.05 218.898 245.05 219.21C245.05 219.594 245.182 219.912 245.446 220.164C245.722 220.404 246.058 220.524 246.454 220.524ZM261.62 212.982C262.844 212.982 263.75 213.288 264.338 213.9C264.938 214.5 265.238 215.418 265.238 216.654V221.046C265.238 221.37 265.142 221.628 264.95 221.82C264.758 222 264.494 222.09 264.158 222.09C263.846 222.09 263.588 221.994 263.384 221.802C263.192 221.61 263.096 221.358 263.096 221.046V220.65C262.892 221.118 262.568 221.484 262.124 221.748C261.692 222.012 261.188 222.144 260.612 222.144C260.024 222.144 259.49 222.024 259.01 221.784C258.53 221.544 258.152 221.214 257.876 220.794C257.6 220.374 257.462 219.906 257.462 219.39C257.462 218.742 257.624 218.232 257.948 217.86C258.284 217.488 258.824 217.218 259.568 217.05C260.312 216.882 261.338 216.798 262.646 216.798H263.096V216.384C263.096 215.796 262.97 215.37 262.718 215.106C262.466 214.83 262.058 214.692 261.494 214.692C261.146 214.692 260.792 214.746 260.432 214.854C260.072 214.95 259.646 215.094 259.154 215.286C258.842 215.442 258.614 215.52 258.47 215.52C258.254 215.52 258.074 215.442 257.93 215.286C257.798 215.13 257.732 214.926 257.732 214.674C257.732 214.47 257.78 214.296 257.876 214.152C257.984 213.996 258.158 213.852 258.398 213.72C258.818 213.492 259.316 213.312 259.892 213.18C260.48 213.048 261.056 212.982 261.62 212.982ZM261.062 220.524C261.662 220.524 262.148 220.326 262.52 219.93C262.904 219.522 263.096 219 263.096 218.364V217.986H262.772C261.968 217.986 261.344 218.022 260.9 218.094C260.456 218.166 260.138 218.292 259.946 218.472C259.754 218.652 259.658 218.898 259.658 219.21C259.658 219.594 259.79 219.912 260.054 220.164C260.33 220.404 260.666 220.524 261.062 220.524ZM274.976 213.018C275.312 213.018 275.582 213.114 275.786 213.306C275.99 213.498 276.092 213.756 276.092 214.08V221.19C276.092 222.57 275.708 223.614 274.94 224.322C274.172 225.03 273.038 225.384 271.538 225.384C270.23 225.384 269.138 225.138 268.262 224.646C267.818 224.382 267.596 224.064 267.596 223.692C267.596 223.428 267.656 223.218 267.776 223.062C267.908 222.906 268.076 222.828 268.28 222.828C268.388 222.828 268.52 222.852 268.676 222.9C268.832 222.96 268.994 223.026 269.162 223.098C269.594 223.278 269.978 223.416 270.314 223.512C270.662 223.608 271.058 223.656 271.502 223.656C273.074 223.656 273.86 222.888 273.86 221.352V220.2C273.596 220.692 273.212 221.076 272.708 221.352C272.204 221.616 271.628 221.748 270.98 221.748C270.212 221.748 269.528 221.568 268.928 221.208C268.34 220.836 267.878 220.32 267.542 219.66C267.206 219 267.038 218.238 267.038 217.374C267.038 216.51 267.2 215.748 267.524 215.088C267.86 214.416 268.328 213.9 268.928 213.54C269.528 213.168 270.212 212.982 270.98 212.982C271.628 212.982 272.204 213.12 272.708 213.396C273.212 213.66 273.596 214.038 273.86 214.53V214.062C273.86 213.75 273.962 213.498 274.166 213.306C274.37 213.114 274.64 213.018 274.976 213.018ZM271.574 220.002C272.294 220.002 272.852 219.768 273.248 219.3C273.656 218.832 273.86 218.19 273.86 217.374C273.86 216.546 273.656 215.898 273.248 215.43C272.852 214.962 272.294 214.728 271.574 214.728C270.866 214.728 270.308 214.962 269.9 215.43C269.492 215.898 269.288 216.546 269.288 217.374C269.288 218.19 269.492 218.832 269.9 219.3C270.308 219.768 270.866 220.002 271.574 220.002ZM285.389 219.588C285.593 219.588 285.755 219.666 285.875 219.822C286.007 219.978 286.073 220.188 286.073 220.452C286.073 220.824 285.851 221.136 285.407 221.388C284.999 221.616 284.537 221.802 284.021 221.946C283.505 222.078 283.013 222.144 282.545 222.144C281.129 222.144 280.007 221.736 279.179 220.92C278.351 220.104 277.937 218.988 277.937 217.572C277.937 216.672 278.117 215.874 278.477 215.178C278.837 214.482 279.341 213.942 279.989 213.558C280.649 213.174 281.393 212.982 282.221 212.982C283.013 212.982 283.703 213.156 284.291 213.504C284.879 213.852 285.335 214.344 285.659 214.98C285.983 215.616 286.145 216.366 286.145 217.23C286.145 217.746 285.917 218.004 285.461 218.004H280.151C280.223 218.832 280.457 219.444 280.853 219.84C281.249 220.224 281.825 220.416 282.581 220.416C282.965 220.416 283.301 220.368 283.589 220.272C283.889 220.176 284.225 220.044 284.597 219.876C284.957 219.684 285.221 219.588 285.389 219.588ZM282.275 214.566C281.663 214.566 281.171 214.758 280.799 215.142C280.439 215.526 280.223 216.078 280.151 216.798H284.219C284.195 216.066 284.015 215.514 283.679 215.142C283.343 214.758 282.875 214.566 282.275 214.566ZM293.097 212.982C294.153 212.982 294.939 213.282 295.455 213.882C295.971 214.482 296.229 215.388 296.229 216.6V221.028C296.229 221.364 296.127 221.628 295.923 221.82C295.731 222.012 295.461 222.108 295.113 222.108C294.765 222.108 294.489 222.012 294.285 221.82C294.081 221.628 293.979 221.364 293.979 221.028V216.726C293.979 216.042 293.847 215.544 293.583 215.232C293.331 214.92 292.929 214.764 292.377 214.764C291.729 214.764 291.207 214.968 290.811 215.376C290.427 215.784 290.235 216.33 290.235 217.014V221.028C290.235 221.364 290.133 221.628 289.929 221.82C289.725 222.012 289.449 222.108 289.101 222.108C288.753 222.108 288.477 222.012 288.273 221.82C288.081 221.628 287.985 221.364 287.985 221.028V214.062C287.985 213.75 288.087 213.498 288.291 213.306C288.495 213.114 288.771 213.018 289.119 213.018C289.431 213.018 289.683 213.114 289.875 213.306C290.079 213.486 290.181 213.726 290.181 214.026V214.512C290.481 214.02 290.883 213.642 291.387 213.378C291.891 213.114 292.461 212.982 293.097 212.982ZM305.859 209.22C306.195 209.22 306.471 209.316 306.687 209.508C306.903 209.7 307.011 209.952 307.011 210.264V221.028C307.011 221.352 306.909 221.61 306.705 221.802C306.501 221.994 306.231 222.09 305.895 222.09C305.559 222.09 305.289 221.994 305.085 221.802C304.881 221.61 304.779 221.352 304.779 221.028V220.578C304.515 221.07 304.131 221.454 303.627 221.73C303.135 222.006 302.571 222.144 301.935 222.144C301.179 222.144 300.501 221.952 299.901 221.568C299.313 221.184 298.851 220.644 298.515 219.948C298.191 219.24 298.029 218.43 298.029 217.518C298.029 216.606 298.191 215.808 298.515 215.124C298.851 214.44 299.313 213.912 299.901 213.54C300.489 213.168 301.167 212.982 301.935 212.982C302.571 212.982 303.135 213.114 303.627 213.378C304.119 213.642 304.497 214.014 304.761 214.494V210.228C304.761 209.928 304.857 209.688 305.049 209.508C305.253 209.316 305.523 209.22 305.859 209.22ZM302.529 220.398C303.249 220.398 303.801 220.152 304.185 219.66C304.581 219.168 304.779 218.466 304.779 217.554C304.779 216.642 304.581 215.946 304.185 215.466C303.801 214.974 303.255 214.728 302.547 214.728C301.827 214.728 301.269 214.968 300.873 215.448C300.477 215.928 300.279 216.618 300.279 217.518C300.279 218.43 300.477 219.138 300.873 219.642C301.269 220.146 301.821 220.398 302.529 220.398ZM313.141 212.982C314.365 212.982 315.271 213.288 315.859 213.9C316.459 214.5 316.759 215.418 316.759 216.654V221.046C316.759 221.37 316.663 221.628 316.471 221.82C316.279 222 316.015 222.09 315.679 222.09C315.367 222.09 315.109 221.994 314.905 221.802C314.713 221.61 314.617 221.358 314.617 221.046V220.65C314.413 221.118 314.089 221.484 313.645 221.748C313.213 222.012 312.709 222.144 312.133 222.144C311.545 222.144 311.011 222.024 310.531 221.784C310.051 221.544 309.673 221.214 309.397 220.794C309.121 220.374 308.983 219.906 308.983 219.39C308.983 218.742 309.145 218.232 309.469 217.86C309.805 217.488 310.345 217.218 311.089 217.05C311.833 216.882 312.859 216.798 314.167 216.798H314.617V216.384C314.617 215.796 314.491 215.37 314.239 215.106C313.987 214.83 313.579 214.692 313.015 214.692C312.667 214.692 312.313 214.746 311.953 214.854C311.593 214.95 311.167 215.094 310.675 215.286C310.363 215.442 310.135 215.52 309.991 215.52C309.775 215.52 309.595 215.442 309.451 215.286C309.319 215.13 309.253 214.926 309.253 214.674C309.253 214.47 309.301 214.296 309.397 214.152C309.505 213.996 309.679 213.852 309.919 213.72C310.339 213.492 310.837 213.312 311.413 213.18C312.001 213.048 312.577 212.982 313.141 212.982ZM312.583 220.524C313.183 220.524 313.669 220.326 314.041 219.93C314.425 219.522 314.617 219 314.617 218.364V217.986H314.293C313.489 217.986 312.865 218.022 312.421 218.094C311.977 218.166 311.659 218.292 311.467 218.472C311.275 218.652 311.179 218.898 311.179 219.21C311.179 219.594 311.311 219.912 311.575 220.164C311.851 220.404 312.187 220.524 312.583 220.524ZM326.39 209.22C326.726 209.22 327.002 209.316 327.218 209.508C327.434 209.7 327.542 209.952 327.542 210.264V221.028C327.542 221.352 327.44 221.61 327.236 221.802C327.032 221.994 326.762 222.09 326.426 222.09C326.09 222.09 325.82 221.994 325.616 221.802C325.412 221.61 325.31 221.352 325.31 221.028V220.578C325.046 221.07 324.662 221.454 324.158 221.73C323.666 222.006 323.102 222.144 322.466 222.144C321.71 222.144 321.032 221.952 320.432 221.568C319.844 221.184 319.382 220.644 319.046 219.948C318.722 219.24 318.56 218.43 318.56 217.518C318.56 216.606 318.722 215.808 319.046 215.124C319.382 214.44 319.844 213.912 320.432 213.54C321.02 213.168 321.698 212.982 322.466 212.982C323.102 212.982 323.666 213.114 324.158 213.378C324.65 213.642 325.028 214.014 325.292 214.494V210.228C325.292 209.928 325.388 209.688 325.58 209.508C325.784 209.316 326.054 209.22 326.39 209.22ZM323.06 220.398C323.78 220.398 324.332 220.152 324.716 219.66C325.112 219.168 325.31 218.466 325.31 217.554C325.31 216.642 325.112 215.946 324.716 215.466C324.332 214.974 323.786 214.728 323.078 214.728C322.358 214.728 321.8 214.968 321.404 215.448C321.008 215.928 320.81 216.618 320.81 217.518C320.81 218.43 321.008 219.138 321.404 219.642C321.8 220.146 322.352 220.398 323.06 220.398ZM333.673 212.982C334.897 212.982 335.803 213.288 336.391 213.9C336.991 214.5 337.291 215.418 337.291 216.654V221.046C337.291 221.37 337.195 221.628 337.003 221.82C336.811 222 336.547 222.09 336.211 222.09C335.899 222.09 335.641 221.994 335.437 221.802C335.245 221.61 335.149 221.358 335.149 221.046V220.65C334.945 221.118 334.621 221.484 334.177 221.748C333.745 222.012 333.241 222.144 332.665 222.144C332.077 222.144 331.543 222.024 331.063 221.784C330.583 221.544 330.205 221.214 329.929 220.794C329.653 220.374 329.515 219.906 329.515 219.39C329.515 218.742 329.677 218.232 330.001 217.86C330.337 217.488 330.877 217.218 331.621 217.05C332.365 216.882 333.391 216.798 334.699 216.798H335.149V216.384C335.149 215.796 335.023 215.37 334.771 215.106C334.519 214.83 334.111 214.692 333.547 214.692C333.199 214.692 332.845 214.746 332.485 214.854C332.125 214.95 331.699 215.094 331.207 215.286C330.895 215.442 330.667 215.52 330.523 215.52C330.307 215.52 330.127 215.442 329.983 215.286C329.851 215.13 329.785 214.926 329.785 214.674C329.785 214.47 329.833 214.296 329.929 214.152C330.037 213.996 330.211 213.852 330.451 213.72C330.871 213.492 331.369 213.312 331.945 213.18C332.533 213.048 333.109 212.982 333.673 212.982ZM333.115 220.524C333.715 220.524 334.201 220.326 334.573 219.93C334.957 219.522 335.149 219 335.149 218.364V217.986H334.825C334.021 217.986 333.397 218.022 332.953 218.094C332.509 218.166 332.191 218.292 331.999 218.472C331.807 218.652 331.711 218.898 331.711 219.21C331.711 219.594 331.843 219.912 332.107 220.164C332.383 220.404 332.719 220.524 333.115 220.524Z" fill="#999392"/>
</svg>
